<mxfile host="Electron" modified="2024-03-29T05:38:24.437Z" agent="Mozilla/5.0 (Windows NT 10.0; Win64; x64) AppleWebKit/537.36 (KHTML, like Gecko) draw.io/24.1.0 Chrome/120.0.6099.109 Electron/28.1.0 Safari/537.36" etag="LoIDWJyWhZO_X8ngSBF3" version="24.1.0" type="device">
  <diagram name="Page-1" id="5dDRfZ6oNRiqZT2tv_Ei">
    <mxGraphModel dx="1221" dy="823" grid="1" gridSize="10" guides="1" tooltips="1" connect="1" arrows="1" fold="1" page="1" pageScale="1" pageWidth="850" pageHeight="1100" math="0" shadow="0">
      <root>
        <mxCell id="0" />
        <mxCell id="1" parent="0" />
        <mxCell id="0hRBC_SkMm4JD4fW073F-6" style="edgeStyle=orthogonalEdgeStyle;rounded=0;orthogonalLoop=1;jettySize=auto;html=1;exitX=0.5;exitY=1;exitDx=0;exitDy=0;" parent="1" source="k_Y178HCPen4XM4y9In_-2" target="0hRBC_SkMm4JD4fW073F-4" edge="1">
          <mxGeometry relative="1" as="geometry" />
        </mxCell>
        <mxCell id="k_Y178HCPen4XM4y9In_-2" value="Facadepattern" style="swimlane;whiteSpace=wrap;html=1;" parent="1" vertex="1">
          <mxGeometry x="660" y="200" width="170" height="110" as="geometry" />
        </mxCell>
        <mxCell id="0hRBC_SkMm4JD4fW073F-3" value="+main()&amp;nbsp; :void" style="text;html=1;align=center;verticalAlign=middle;resizable=0;points=[];autosize=1;strokeColor=none;fillColor=none;" parent="k_Y178HCPen4XM4y9In_-2" vertex="1">
          <mxGeometry x="30" y="70" width="100" height="30" as="geometry" />
        </mxCell>
        <mxCell id="0hRBC_SkMm4JD4fW073F-18" style="edgeStyle=orthogonalEdgeStyle;rounded=0;orthogonalLoop=1;jettySize=auto;html=1;exitX=0.25;exitY=0;exitDx=0;exitDy=0;entryX=1;entryY=0.5;entryDx=0;entryDy=0;" parent="1" source="0hRBC_SkMm4JD4fW073F-4" target="0hRBC_SkMm4JD4fW073F-17" edge="1">
          <mxGeometry relative="1" as="geometry" />
        </mxCell>
        <mxCell id="0hRBC_SkMm4JD4fW073F-4" value="OS_Producer" style="swimlane;whiteSpace=wrap;html=1;" parent="1" vertex="1">
          <mxGeometry x="660" y="410" width="170" height="160" as="geometry" />
        </mxCell>
        <mxCell id="0hRBC_SkMm4JD4fW073F-5" value="+selectOS()&amp;nbsp; :void" style="text;html=1;align=center;verticalAlign=middle;resizable=0;points=[];autosize=1;strokeColor=none;fillColor=none;" parent="0hRBC_SkMm4JD4fW073F-4" vertex="1">
          <mxGeometry x="10" y="120" width="120" height="30" as="geometry" />
        </mxCell>
        <mxCell id="0hRBC_SkMm4JD4fW073F-10" value="-Android : OS&lt;div&gt;&lt;br&gt;&lt;/div&gt;" style="text;html=1;align=center;verticalAlign=middle;resizable=0;points=[];autosize=1;strokeColor=none;fillColor=none;" parent="0hRBC_SkMm4JD4fW073F-4" vertex="1">
          <mxGeometry y="20" width="100" height="40" as="geometry" />
        </mxCell>
        <mxCell id="0hRBC_SkMm4JD4fW073F-11" value="-IOS : OS" style="text;html=1;align=center;verticalAlign=middle;resizable=0;points=[];autosize=1;strokeColor=none;fillColor=none;" parent="0hRBC_SkMm4JD4fW073F-4" vertex="1">
          <mxGeometry y="38" width="80" height="30" as="geometry" />
        </mxCell>
        <mxCell id="0hRBC_SkMm4JD4fW073F-15" value="-Windows :OS" style="text;html=1;align=center;verticalAlign=middle;resizable=0;points=[];autosize=1;strokeColor=none;fillColor=none;" parent="0hRBC_SkMm4JD4fW073F-4" vertex="1">
          <mxGeometry y="60" width="100" height="30" as="geometry" />
        </mxCell>
        <mxCell id="0hRBC_SkMm4JD4fW073F-7" value="asks" style="text;html=1;align=center;verticalAlign=middle;resizable=0;points=[];autosize=1;strokeColor=none;fillColor=none;" parent="1" vertex="1">
          <mxGeometry x="755" y="330" width="50" height="30" as="geometry" />
        </mxCell>
        <mxCell id="0hRBC_SkMm4JD4fW073F-16" value="" style="endArrow=none;html=1;rounded=0;entryX=0;entryY=0.5;entryDx=0;entryDy=0;exitX=1;exitY=0.5;exitDx=0;exitDy=0;" parent="1" source="k_Y178HCPen4XM4y9In_-2" target="k_Y178HCPen4XM4y9In_-2" edge="1">
          <mxGeometry width="50" height="50" relative="1" as="geometry">
            <mxPoint x="400" y="430" as="sourcePoint" />
            <mxPoint x="450" y="380" as="targetPoint" />
          </mxGeometry>
        </mxCell>
        <mxCell id="0hRBC_SkMm4JD4fW073F-17" value="" style="rounded=0;whiteSpace=wrap;html=1;" parent="1" vertex="1">
          <mxGeometry x="70" y="110" width="550" height="540" as="geometry" />
        </mxCell>
        <mxCell id="0hRBC_SkMm4JD4fW073F-19" value="creates" style="text;html=1;align=center;verticalAlign=middle;resizable=0;points=[];autosize=1;strokeColor=none;fillColor=none;" parent="1" vertex="1">
          <mxGeometry x="620" y="350" width="60" height="30" as="geometry" />
        </mxCell>
        <mxCell id="0hRBC_SkMm4JD4fW073F-20" value="OS" style="swimlane;whiteSpace=wrap;html=1;" parent="1" vertex="1">
          <mxGeometry x="255" y="170" width="185" height="100" as="geometry" />
        </mxCell>
        <mxCell id="0hRBC_SkMm4JD4fW073F-21" value="+spec()&amp;nbsp; :void" style="text;html=1;align=center;verticalAlign=middle;resizable=0;points=[];autosize=1;strokeColor=none;fillColor=none;" parent="0hRBC_SkMm4JD4fW073F-20" vertex="1">
          <mxGeometry x="25" y="25" width="100" height="30" as="geometry" />
        </mxCell>
        <mxCell id="0hRBC_SkMm4JD4fW073F-42" value="&amp;nbsp;+type() :void&lt;div&gt;&lt;br&gt;&lt;/div&gt;" style="text;html=1;align=center;verticalAlign=middle;resizable=0;points=[];autosize=1;strokeColor=none;fillColor=none;" parent="0hRBC_SkMm4JD4fW073F-20" vertex="1">
          <mxGeometry x="25" y="55" width="90" height="40" as="geometry" />
        </mxCell>
        <mxCell id="0hRBC_SkMm4JD4fW073F-22" value="&amp;lt;&amp;lt;interface&amp;gt;&amp;gt;" style="text;html=1;align=center;verticalAlign=middle;resizable=0;points=[];autosize=1;strokeColor=none;fillColor=none;" parent="1" vertex="1">
          <mxGeometry x="285" y="140" width="100" height="30" as="geometry" />
        </mxCell>
        <mxCell id="0hRBC_SkMm4JD4fW073F-23" value="" style="endArrow=none;html=1;rounded=0;" parent="1" edge="1">
          <mxGeometry width="50" height="50" relative="1" as="geometry">
            <mxPoint x="830" y="510" as="sourcePoint" />
            <mxPoint x="660" y="510" as="targetPoint" />
          </mxGeometry>
        </mxCell>
        <mxCell id="0hRBC_SkMm4JD4fW073F-34" style="edgeStyle=orthogonalEdgeStyle;rounded=0;orthogonalLoop=1;jettySize=auto;html=1;exitX=0.5;exitY=0;exitDx=0;exitDy=0;entryX=0.5;entryY=1;entryDx=0;entryDy=0;" parent="1" source="0hRBC_SkMm4JD4fW073F-25" target="0hRBC_SkMm4JD4fW073F-20" edge="1">
          <mxGeometry relative="1" as="geometry" />
        </mxCell>
        <mxCell id="0hRBC_SkMm4JD4fW073F-25" value="Android" style="swimlane;whiteSpace=wrap;html=1;" parent="1" vertex="1">
          <mxGeometry x="80" y="450" width="170" height="100" as="geometry" />
        </mxCell>
        <mxCell id="0hRBC_SkMm4JD4fW073F-26" value="+spec()&amp;nbsp; :void" style="text;html=1;align=center;verticalAlign=middle;resizable=0;points=[];autosize=1;strokeColor=none;fillColor=none;" parent="0hRBC_SkMm4JD4fW073F-25" vertex="1">
          <mxGeometry x="20" y="28" width="100" height="30" as="geometry" />
        </mxCell>
        <mxCell id="0hRBC_SkMm4JD4fW073F-33" style="edgeStyle=orthogonalEdgeStyle;rounded=0;orthogonalLoop=1;jettySize=auto;html=1;exitX=0.5;exitY=0;exitDx=0;exitDy=0;entryX=0.5;entryY=1;entryDx=0;entryDy=0;" parent="1" source="0hRBC_SkMm4JD4fW073F-27" target="0hRBC_SkMm4JD4fW073F-20" edge="1">
          <mxGeometry relative="1" as="geometry" />
        </mxCell>
        <mxCell id="0hRBC_SkMm4JD4fW073F-27" value="IOS" style="swimlane;whiteSpace=wrap;html=1;startSize=23;" parent="1" vertex="1">
          <mxGeometry x="262.5" y="450" width="170" height="100" as="geometry" />
        </mxCell>
        <mxCell id="0hRBC_SkMm4JD4fW073F-28" value="+spec()&amp;nbsp; :void" style="text;html=1;align=center;verticalAlign=middle;resizable=0;points=[];autosize=1;strokeColor=none;fillColor=none;" parent="0hRBC_SkMm4JD4fW073F-27" vertex="1">
          <mxGeometry x="30" y="30" width="100" height="30" as="geometry" />
        </mxCell>
        <mxCell id="0hRBC_SkMm4JD4fW073F-45" value="&amp;nbsp;+type() :void&lt;div&gt;&lt;br&gt;&lt;/div&gt;" style="text;html=1;align=center;verticalAlign=middle;resizable=0;points=[];autosize=1;strokeColor=none;fillColor=none;" parent="0hRBC_SkMm4JD4fW073F-27" vertex="1">
          <mxGeometry x="30" y="50" width="90" height="40" as="geometry" />
        </mxCell>
        <mxCell id="n7DKw1yEfa0WBLcHOm64-4" value="&amp;nbsp; &amp;nbsp; +own() :void&lt;div&gt;&lt;br&gt;&lt;/div&gt;" style="text;html=1;align=center;verticalAlign=middle;resizable=0;points=[];autosize=1;strokeColor=none;fillColor=none;" vertex="1" parent="0hRBC_SkMm4JD4fW073F-27">
          <mxGeometry x="20" y="70" width="100" height="40" as="geometry" />
        </mxCell>
        <mxCell id="0hRBC_SkMm4JD4fW073F-39" style="edgeStyle=orthogonalEdgeStyle;rounded=0;orthogonalLoop=1;jettySize=auto;html=1;exitX=0.5;exitY=0;exitDx=0;exitDy=0;entryX=0.5;entryY=1;entryDx=0;entryDy=0;" parent="1" source="0hRBC_SkMm4JD4fW073F-29" target="0hRBC_SkMm4JD4fW073F-20" edge="1">
          <mxGeometry relative="1" as="geometry" />
        </mxCell>
        <mxCell id="0hRBC_SkMm4JD4fW073F-29" value="Windows" style="swimlane;whiteSpace=wrap;html=1;startSize=23;" parent="1" vertex="1">
          <mxGeometry x="440" y="450" width="170" height="100" as="geometry" />
        </mxCell>
        <mxCell id="0hRBC_SkMm4JD4fW073F-30" value="+spec()&amp;nbsp; :void" style="text;html=1;align=center;verticalAlign=middle;resizable=0;points=[];autosize=1;strokeColor=none;fillColor=none;" parent="0hRBC_SkMm4JD4fW073F-29" vertex="1">
          <mxGeometry x="30" y="30" width="100" height="30" as="geometry" />
        </mxCell>
        <mxCell id="0hRBC_SkMm4JD4fW073F-47" value="&amp;nbsp;+type() :void&lt;div&gt;&lt;br&gt;&lt;/div&gt;" style="text;html=1;align=center;verticalAlign=middle;resizable=0;points=[];autosize=1;strokeColor=none;fillColor=none;" parent="0hRBC_SkMm4JD4fW073F-29" vertex="1">
          <mxGeometry x="30" y="50" width="90" height="40" as="geometry" />
        </mxCell>
        <mxCell id="n7DKw1yEfa0WBLcHOm64-5" value="&amp;nbsp; &amp;nbsp; +own() :void&lt;div&gt;&lt;br&gt;&lt;/div&gt;" style="text;html=1;align=center;verticalAlign=middle;resizable=0;points=[];autosize=1;strokeColor=none;fillColor=none;" vertex="1" parent="0hRBC_SkMm4JD4fW073F-29">
          <mxGeometry x="20" y="70" width="100" height="40" as="geometry" />
        </mxCell>
        <mxCell id="0hRBC_SkMm4JD4fW073F-40" value="implements&lt;div&gt;&lt;br&gt;&lt;/div&gt;" style="text;html=1;align=center;verticalAlign=middle;resizable=0;points=[];autosize=1;strokeColor=none;fillColor=none;" parent="1" vertex="1">
          <mxGeometry x="205" y="325" width="80" height="40" as="geometry" />
        </mxCell>
        <mxCell id="0hRBC_SkMm4JD4fW073F-41" value="implements&lt;div&gt;&lt;br&gt;&lt;/div&gt;" style="text;html=1;align=center;verticalAlign=middle;resizable=0;points=[];autosize=1;strokeColor=none;fillColor=none;" parent="1" vertex="1">
          <mxGeometry x="380" y="325" width="80" height="40" as="geometry" />
        </mxCell>
        <mxCell id="0hRBC_SkMm4JD4fW073F-44" value="&amp;nbsp;+type() :void&lt;div&gt;&lt;br&gt;&lt;/div&gt;" style="text;html=1;align=center;verticalAlign=middle;resizable=0;points=[];autosize=1;strokeColor=none;fillColor=none;" parent="1" vertex="1">
          <mxGeometry x="100" y="500" width="90" height="40" as="geometry" />
        </mxCell>
        <mxCell id="0hRBC_SkMm4JD4fW073F-48" value="implements&lt;div&gt;&lt;br&gt;&lt;/div&gt;" style="text;html=1;align=center;verticalAlign=middle;resizable=0;points=[];autosize=1;strokeColor=none;fillColor=none;rotation=90;" parent="1" vertex="1">
          <mxGeometry x="320" y="300" width="80" height="40" as="geometry" />
        </mxCell>
        <mxCell id="n7DKw1yEfa0WBLcHOm64-1" value="&amp;nbsp; &amp;nbsp; +own() :void&lt;div&gt;&lt;br&gt;&lt;/div&gt;" style="text;html=1;align=center;verticalAlign=middle;resizable=0;points=[];autosize=1;strokeColor=none;fillColor=none;" vertex="1" parent="1">
          <mxGeometry x="270" y="250" width="100" height="40" as="geometry" />
        </mxCell>
        <mxCell id="n7DKw1yEfa0WBLcHOm64-3" value="&amp;nbsp; &amp;nbsp; +own() :void&lt;div&gt;&lt;br&gt;&lt;/div&gt;" style="text;html=1;align=center;verticalAlign=middle;resizable=0;points=[];autosize=1;strokeColor=none;fillColor=none;" vertex="1" parent="1">
          <mxGeometry x="90" y="520" width="100" height="40" as="geometry" />
        </mxCell>
      </root>
    </mxGraphModel>
  </diagram>
</mxfile>
